<mxfile host="app.diagrams.net" modified="2024-03-03T15:31:03.562Z" agent="Mozilla/5.0 (Windows NT 10.0; Win64; x64) AppleWebKit/537.36 (KHTML, like Gecko) Chrome/122.0.0.0 Safari/537.36" etag="T-DX5WUZ9psyExP1WF1Q" version="24.0.1" type="device">
  <diagram name="Page-1" id="Z6jXXhHx8_HZFmXS2hZ8">
    <mxGraphModel dx="1160" dy="667" grid="1" gridSize="10" guides="1" tooltips="1" connect="1" arrows="1" fold="1" page="1" pageScale="1" pageWidth="850" pageHeight="1100" math="0" shadow="0">
      <root>
        <mxCell id="0" />
        <mxCell id="1" parent="0" />
        <mxCell id="D2-zC5RqpFBFITcQUjuL-2" value="melakukan" style="shape=rhombus;perimeter=rhombusPerimeter;whiteSpace=wrap;html=1;align=center;" vertex="1" parent="1">
          <mxGeometry x="350" y="360" width="120" height="60" as="geometry" />
        </mxCell>
        <mxCell id="D2-zC5RqpFBFITcQUjuL-18" style="rounded=0;orthogonalLoop=1;jettySize=auto;html=1;exitX=0;exitY=0.5;exitDx=0;exitDy=0;strokeColor=default;endArrow=none;endFill=0;" edge="1" parent="1" source="D2-zC5RqpFBFITcQUjuL-4" target="D2-zC5RqpFBFITcQUjuL-6">
          <mxGeometry relative="1" as="geometry" />
        </mxCell>
        <mxCell id="D2-zC5RqpFBFITcQUjuL-20" style="rounded=0;orthogonalLoop=1;jettySize=auto;html=1;endArrow=none;endFill=0;" edge="1" parent="1" source="D2-zC5RqpFBFITcQUjuL-4" target="D2-zC5RqpFBFITcQUjuL-13">
          <mxGeometry relative="1" as="geometry" />
        </mxCell>
        <mxCell id="D2-zC5RqpFBFITcQUjuL-4" value="users" style="whiteSpace=wrap;html=1;align=center;" vertex="1" parent="1">
          <mxGeometry x="360" y="480" width="100" height="40" as="geometry" />
        </mxCell>
        <mxCell id="D2-zC5RqpFBFITcQUjuL-24" style="rounded=0;orthogonalLoop=1;jettySize=auto;html=1;endArrow=none;endFill=0;" edge="1" parent="1" source="D2-zC5RqpFBFITcQUjuL-5" target="D2-zC5RqpFBFITcQUjuL-1">
          <mxGeometry relative="1" as="geometry" />
        </mxCell>
        <mxCell id="D2-zC5RqpFBFITcQUjuL-5" value="id" style="ellipse;whiteSpace=wrap;html=1;align=center;fontStyle=4;" vertex="1" parent="1">
          <mxGeometry x="200" y="248" width="100" height="40" as="geometry" />
        </mxCell>
        <mxCell id="D2-zC5RqpFBFITcQUjuL-6" value="id" style="ellipse;whiteSpace=wrap;html=1;align=center;fontStyle=4;" vertex="1" parent="1">
          <mxGeometry x="180" y="470" width="100" height="40" as="geometry" />
        </mxCell>
        <mxCell id="D2-zC5RqpFBFITcQUjuL-7" value="user_id" style="ellipse;whiteSpace=wrap;html=1;align=center;" vertex="1" parent="1">
          <mxGeometry x="220" y="200" width="100" height="40" as="geometry" />
        </mxCell>
        <mxCell id="D2-zC5RqpFBFITcQUjuL-8" value="status" style="ellipse;whiteSpace=wrap;html=1;align=center;" vertex="1" parent="1">
          <mxGeometry x="280" y="160" width="100" height="40" as="geometry" />
        </mxCell>
        <mxCell id="D2-zC5RqpFBFITcQUjuL-12" value="receipt" style="ellipse;whiteSpace=wrap;html=1;align=center;" vertex="1" parent="1">
          <mxGeometry x="390" y="150" width="100" height="40" as="geometry" />
        </mxCell>
        <mxCell id="D2-zC5RqpFBFITcQUjuL-13" value="name" style="ellipse;whiteSpace=wrap;html=1;align=center;" vertex="1" parent="1">
          <mxGeometry x="210" y="530" width="100" height="40" as="geometry" />
        </mxCell>
        <mxCell id="D2-zC5RqpFBFITcQUjuL-14" value="email" style="ellipse;whiteSpace=wrap;html=1;align=center;" vertex="1" parent="1">
          <mxGeometry x="240" y="580" width="100" height="40" as="geometry" />
        </mxCell>
        <mxCell id="D2-zC5RqpFBFITcQUjuL-15" value="password" style="ellipse;whiteSpace=wrap;html=1;align=center;" vertex="1" parent="1">
          <mxGeometry x="360" y="590" width="100" height="40" as="geometry" />
        </mxCell>
        <mxCell id="D2-zC5RqpFBFITcQUjuL-16" value="is_admin" style="ellipse;whiteSpace=wrap;html=1;align=center;" vertex="1" parent="1">
          <mxGeometry x="480" y="560" width="100" height="40" as="geometry" />
        </mxCell>
        <mxCell id="D2-zC5RqpFBFITcQUjuL-21" style="rounded=0;orthogonalLoop=1;jettySize=auto;html=1;entryX=0.464;entryY=0.007;entryDx=0;entryDy=0;entryPerimeter=0;endArrow=none;endFill=0;" edge="1" parent="1" source="D2-zC5RqpFBFITcQUjuL-4" target="D2-zC5RqpFBFITcQUjuL-15">
          <mxGeometry relative="1" as="geometry" />
        </mxCell>
        <mxCell id="D2-zC5RqpFBFITcQUjuL-22" style="rounded=0;orthogonalLoop=1;jettySize=auto;html=1;entryX=0.853;entryY=0.243;entryDx=0;entryDy=0;entryPerimeter=0;endArrow=none;endFill=0;" edge="1" parent="1" source="D2-zC5RqpFBFITcQUjuL-4" target="D2-zC5RqpFBFITcQUjuL-14">
          <mxGeometry relative="1" as="geometry" />
        </mxCell>
        <mxCell id="D2-zC5RqpFBFITcQUjuL-23" style="rounded=0;orthogonalLoop=1;jettySize=auto;html=1;entryX=0.293;entryY=0.071;entryDx=0;entryDy=0;entryPerimeter=0;endArrow=none;endFill=0;" edge="1" parent="1" source="D2-zC5RqpFBFITcQUjuL-4" target="D2-zC5RqpFBFITcQUjuL-16">
          <mxGeometry relative="1" as="geometry" />
        </mxCell>
        <mxCell id="D2-zC5RqpFBFITcQUjuL-25" style="rounded=0;orthogonalLoop=1;jettySize=auto;html=1;entryX=0.047;entryY=0.121;entryDx=0;entryDy=0;entryPerimeter=0;endArrow=none;endFill=0;" edge="1" parent="1" source="D2-zC5RqpFBFITcQUjuL-7" target="D2-zC5RqpFBFITcQUjuL-1">
          <mxGeometry relative="1" as="geometry" />
        </mxCell>
        <mxCell id="D2-zC5RqpFBFITcQUjuL-26" style="rounded=0;orthogonalLoop=1;jettySize=auto;html=1;entryX=0.43;entryY=0.007;entryDx=0;entryDy=0;entryPerimeter=0;endArrow=none;endFill=0;" edge="1" parent="1" source="D2-zC5RqpFBFITcQUjuL-8" target="D2-zC5RqpFBFITcQUjuL-1">
          <mxGeometry relative="1" as="geometry" />
        </mxCell>
        <mxCell id="D2-zC5RqpFBFITcQUjuL-27" style="rounded=0;orthogonalLoop=1;jettySize=auto;html=1;entryX=0.67;entryY=0.021;entryDx=0;entryDy=0;entryPerimeter=0;endArrow=none;endFill=0;" edge="1" parent="1" source="D2-zC5RqpFBFITcQUjuL-12" target="D2-zC5RqpFBFITcQUjuL-1">
          <mxGeometry relative="1" as="geometry" />
        </mxCell>
        <mxCell id="D2-zC5RqpFBFITcQUjuL-31" value="Memiliki" style="shape=rhombus;perimeter=rhombusPerimeter;whiteSpace=wrap;html=1;align=center;" vertex="1" parent="1">
          <mxGeometry x="600" y="470" width="120" height="60" as="geometry" />
        </mxCell>
        <mxCell id="D2-zC5RqpFBFITcQUjuL-35" value="Menyimpan" style="shape=rhombus;perimeter=rhombusPerimeter;whiteSpace=wrap;html=1;align=center;" vertex="1" parent="1">
          <mxGeometry x="880" y="360" width="120" height="60" as="geometry" />
        </mxCell>
        <mxCell id="D2-zC5RqpFBFITcQUjuL-52" style="rounded=0;orthogonalLoop=1;jettySize=auto;html=1;entryX=0.5;entryY=0;entryDx=0;entryDy=0;exitX=0.5;exitY=1;exitDx=0;exitDy=0;" edge="1" parent="1" source="D2-zC5RqpFBFITcQUjuL-36" target="D2-zC5RqpFBFITcQUjuL-33">
          <mxGeometry relative="1" as="geometry" />
        </mxCell>
        <mxCell id="D2-zC5RqpFBFITcQUjuL-36" value="name&lt;div&gt;&lt;br&gt;&lt;/div&gt;" style="ellipse;whiteSpace=wrap;html=1;align=center;" vertex="1" parent="1">
          <mxGeometry x="880" y="130" width="100" height="40" as="geometry" />
        </mxCell>
        <mxCell id="D2-zC5RqpFBFITcQUjuL-53" style="rounded=0;orthogonalLoop=1;jettySize=auto;html=1;entryX=1;entryY=0.25;entryDx=0;entryDy=0;" edge="1" parent="1" source="D2-zC5RqpFBFITcQUjuL-37" target="D2-zC5RqpFBFITcQUjuL-33">
          <mxGeometry relative="1" as="geometry" />
        </mxCell>
        <mxCell id="D2-zC5RqpFBFITcQUjuL-37" value="description" style="ellipse;whiteSpace=wrap;html=1;align=center;" vertex="1" parent="1">
          <mxGeometry x="1020" y="160" width="100" height="40" as="geometry" />
        </mxCell>
        <mxCell id="D2-zC5RqpFBFITcQUjuL-54" style="rounded=0;orthogonalLoop=1;jettySize=auto;html=1;entryX=1;entryY=0.75;entryDx=0;entryDy=0;" edge="1" parent="1" source="D2-zC5RqpFBFITcQUjuL-38" target="D2-zC5RqpFBFITcQUjuL-33">
          <mxGeometry relative="1" as="geometry" />
        </mxCell>
        <mxCell id="D2-zC5RqpFBFITcQUjuL-38" value="image" style="ellipse;whiteSpace=wrap;html=1;align=center;" vertex="1" parent="1">
          <mxGeometry x="1060" y="240" width="100" height="40" as="geometry" />
        </mxCell>
        <mxCell id="D2-zC5RqpFBFITcQUjuL-55" style="rounded=0;orthogonalLoop=1;jettySize=auto;html=1;entryX=0.75;entryY=1;entryDx=0;entryDy=0;" edge="1" parent="1" source="D2-zC5RqpFBFITcQUjuL-39" target="D2-zC5RqpFBFITcQUjuL-33">
          <mxGeometry relative="1" as="geometry" />
        </mxCell>
        <mxCell id="D2-zC5RqpFBFITcQUjuL-39" value="stock" style="ellipse;whiteSpace=wrap;html=1;align=center;" vertex="1" parent="1">
          <mxGeometry x="1030" y="310" width="100" height="40" as="geometry" />
        </mxCell>
        <mxCell id="D2-zC5RqpFBFITcQUjuL-51" style="rounded=0;orthogonalLoop=1;jettySize=auto;html=1;" edge="1" parent="1" source="D2-zC5RqpFBFITcQUjuL-40" target="D2-zC5RqpFBFITcQUjuL-33">
          <mxGeometry relative="1" as="geometry" />
        </mxCell>
        <mxCell id="D2-zC5RqpFBFITcQUjuL-40" value="price" style="ellipse;whiteSpace=wrap;html=1;align=center;" vertex="1" parent="1">
          <mxGeometry x="780" y="170" width="100" height="40" as="geometry" />
        </mxCell>
        <mxCell id="D2-zC5RqpFBFITcQUjuL-42" value="id" style="ellipse;whiteSpace=wrap;html=1;align=center;fontStyle=4;" vertex="1" parent="1">
          <mxGeometry x="780" y="310" width="100" height="40" as="geometry" />
        </mxCell>
        <mxCell id="D2-zC5RqpFBFITcQUjuL-46" value="carts" style="whiteSpace=wrap;html=1;align=center;" vertex="1" parent="1">
          <mxGeometry x="890" y="480" width="100" height="40" as="geometry" />
        </mxCell>
        <mxCell id="D2-zC5RqpFBFITcQUjuL-50" style="rounded=0;orthogonalLoop=1;jettySize=auto;html=1;entryX=0.072;entryY=0.898;entryDx=0;entryDy=0;entryPerimeter=0;" edge="1" parent="1" source="D2-zC5RqpFBFITcQUjuL-42" target="D2-zC5RqpFBFITcQUjuL-33">
          <mxGeometry relative="1" as="geometry" />
        </mxCell>
        <mxCell id="D2-zC5RqpFBFITcQUjuL-61" style="rounded=0;orthogonalLoop=1;jettySize=auto;html=1;" edge="1" parent="1" source="D2-zC5RqpFBFITcQUjuL-56" target="D2-zC5RqpFBFITcQUjuL-46">
          <mxGeometry relative="1" as="geometry" />
        </mxCell>
        <mxCell id="D2-zC5RqpFBFITcQUjuL-56" value="product_id" style="ellipse;whiteSpace=wrap;html=1;align=center;" vertex="1" parent="1">
          <mxGeometry x="770" y="560" width="100" height="40" as="geometry" />
        </mxCell>
        <mxCell id="D2-zC5RqpFBFITcQUjuL-62" style="rounded=0;orthogonalLoop=1;jettySize=auto;html=1;" edge="1" parent="1" source="D2-zC5RqpFBFITcQUjuL-57" target="D2-zC5RqpFBFITcQUjuL-46">
          <mxGeometry relative="1" as="geometry" />
        </mxCell>
        <mxCell id="D2-zC5RqpFBFITcQUjuL-57" value="amount" style="ellipse;whiteSpace=wrap;html=1;align=center;" vertex="1" parent="1">
          <mxGeometry x="920" y="570" width="100" height="40" as="geometry" />
        </mxCell>
        <mxCell id="D2-zC5RqpFBFITcQUjuL-63" style="rounded=0;orthogonalLoop=1;jettySize=auto;html=1;" edge="1" parent="1" source="D2-zC5RqpFBFITcQUjuL-59" target="D2-zC5RqpFBFITcQUjuL-46">
          <mxGeometry relative="1" as="geometry" />
        </mxCell>
        <mxCell id="D2-zC5RqpFBFITcQUjuL-59" value="user_id" style="ellipse;whiteSpace=wrap;html=1;align=center;" vertex="1" parent="1">
          <mxGeometry x="1040" y="500" width="100" height="40" as="geometry" />
        </mxCell>
        <mxCell id="D2-zC5RqpFBFITcQUjuL-64" style="rounded=0;orthogonalLoop=1;jettySize=auto;html=1;" edge="1" parent="1" source="D2-zC5RqpFBFITcQUjuL-60" target="D2-zC5RqpFBFITcQUjuL-46">
          <mxGeometry relative="1" as="geometry" />
        </mxCell>
        <mxCell id="D2-zC5RqpFBFITcQUjuL-60" value="id" style="ellipse;whiteSpace=wrap;html=1;align=center;fontStyle=4;" vertex="1" parent="1">
          <mxGeometry x="780" y="420" width="100" height="40" as="geometry" />
        </mxCell>
        <mxCell id="D2-zC5RqpFBFITcQUjuL-72" value="" style="endArrow=none;html=1;rounded=0;" edge="1" parent="1" source="D2-zC5RqpFBFITcQUjuL-2" target="D2-zC5RqpFBFITcQUjuL-4">
          <mxGeometry relative="1" as="geometry">
            <mxPoint x="500" y="410" as="sourcePoint" />
            <mxPoint x="660" y="410" as="targetPoint" />
          </mxGeometry>
        </mxCell>
        <mxCell id="D2-zC5RqpFBFITcQUjuL-73" value="1" style="resizable=0;html=1;whiteSpace=wrap;align=right;verticalAlign=bottom;" connectable="0" vertex="1" parent="D2-zC5RqpFBFITcQUjuL-72">
          <mxGeometry x="1" relative="1" as="geometry">
            <mxPoint x="15" as="offset" />
          </mxGeometry>
        </mxCell>
        <mxCell id="D2-zC5RqpFBFITcQUjuL-74" value="" style="endArrow=none;html=1;rounded=0;entryX=0.5;entryY=1;entryDx=0;entryDy=0;exitX=0.5;exitY=0;exitDx=0;exitDy=0;" edge="1" parent="1" source="D2-zC5RqpFBFITcQUjuL-2" target="D2-zC5RqpFBFITcQUjuL-1">
          <mxGeometry relative="1" as="geometry">
            <mxPoint x="470" y="350" as="sourcePoint" />
            <mxPoint x="630" y="350" as="targetPoint" />
          </mxGeometry>
        </mxCell>
        <mxCell id="D2-zC5RqpFBFITcQUjuL-75" value="N" style="resizable=0;html=1;whiteSpace=wrap;align=right;verticalAlign=bottom;" connectable="0" vertex="1" parent="D2-zC5RqpFBFITcQUjuL-74">
          <mxGeometry x="1" relative="1" as="geometry">
            <mxPoint x="15" y="22" as="offset" />
          </mxGeometry>
        </mxCell>
        <mxCell id="D2-zC5RqpFBFITcQUjuL-1" value="orders" style="rounded=1;arcSize=5;whiteSpace=wrap;html=1;align=center;flipH=0;" vertex="1" parent="1">
          <mxGeometry x="360" y="250" width="100" height="40" as="geometry" />
        </mxCell>
        <mxCell id="D2-zC5RqpFBFITcQUjuL-33" value="products" style="rounded=1;arcSize=10;whiteSpace=wrap;html=1;align=center;flipH=0;" vertex="1" parent="1">
          <mxGeometry x="890" y="250" width="100" height="40" as="geometry" />
        </mxCell>
        <mxCell id="D2-zC5RqpFBFITcQUjuL-67" value="" style="endArrow=none;html=1;rounded=0;entryX=-0.033;entryY=0.478;entryDx=0;entryDy=0;entryPerimeter=0;exitX=1;exitY=0.5;exitDx=0;exitDy=0;" edge="1" parent="1" source="D2-zC5RqpFBFITcQUjuL-1" target="D2-zC5RqpFBFITcQUjuL-33">
          <mxGeometry relative="1" as="geometry">
            <mxPoint x="579" y="269.74" as="sourcePoint" />
            <mxPoint x="739" y="269.74" as="targetPoint" />
          </mxGeometry>
        </mxCell>
        <mxCell id="D2-zC5RqpFBFITcQUjuL-68" value="M" style="resizable=0;html=1;whiteSpace=wrap;align=left;verticalAlign=bottom;" connectable="0" vertex="1" parent="D2-zC5RqpFBFITcQUjuL-67">
          <mxGeometry x="-1" relative="1" as="geometry" />
        </mxCell>
        <mxCell id="D2-zC5RqpFBFITcQUjuL-69" value="N" style="resizable=0;html=1;whiteSpace=wrap;align=right;verticalAlign=bottom;" connectable="0" vertex="1" parent="D2-zC5RqpFBFITcQUjuL-67">
          <mxGeometry x="1" relative="1" as="geometry" />
        </mxCell>
        <mxCell id="D2-zC5RqpFBFITcQUjuL-32" value="transactions" style="shape=rhombus;perimeter=rhombusPerimeter;whiteSpace=wrap;html=1;align=center;flipH=0;" vertex="1" parent="1">
          <mxGeometry x="600" y="240" width="120" height="60" as="geometry" />
        </mxCell>
        <mxCell id="D2-zC5RqpFBFITcQUjuL-78" value="" style="endArrow=none;html=1;rounded=0;entryX=0.474;entryY=0.971;entryDx=0;entryDy=0;entryPerimeter=0;" edge="1" parent="1" source="D2-zC5RqpFBFITcQUjuL-35" target="D2-zC5RqpFBFITcQUjuL-33">
          <mxGeometry relative="1" as="geometry">
            <mxPoint x="930" y="330" as="sourcePoint" />
            <mxPoint x="1090" y="330" as="targetPoint" />
          </mxGeometry>
        </mxCell>
        <mxCell id="D2-zC5RqpFBFITcQUjuL-79" value="N" style="resizable=0;html=1;whiteSpace=wrap;align=right;verticalAlign=bottom;" connectable="0" vertex="1" parent="D2-zC5RqpFBFITcQUjuL-78">
          <mxGeometry x="1" relative="1" as="geometry">
            <mxPoint x="-7" y="21" as="offset" />
          </mxGeometry>
        </mxCell>
        <mxCell id="D2-zC5RqpFBFITcQUjuL-80" value="" style="endArrow=none;html=1;rounded=0;entryX=0.499;entryY=0.047;entryDx=0;entryDy=0;entryPerimeter=0;exitX=0.498;exitY=0.98;exitDx=0;exitDy=0;exitPerimeter=0;" edge="1" parent="1" source="D2-zC5RqpFBFITcQUjuL-35" target="D2-zC5RqpFBFITcQUjuL-46">
          <mxGeometry relative="1" as="geometry">
            <mxPoint x="940" y="430" as="sourcePoint" />
            <mxPoint x="1070" y="430" as="targetPoint" />
          </mxGeometry>
        </mxCell>
        <mxCell id="D2-zC5RqpFBFITcQUjuL-81" value="1" style="resizable=0;html=1;whiteSpace=wrap;align=right;verticalAlign=bottom;" connectable="0" vertex="1" parent="D2-zC5RqpFBFITcQUjuL-80">
          <mxGeometry x="1" relative="1" as="geometry">
            <mxPoint x="-10" y="-12" as="offset" />
          </mxGeometry>
        </mxCell>
        <mxCell id="D2-zC5RqpFBFITcQUjuL-82" value="" style="endArrow=none;html=1;rounded=0;entryX=1;entryY=0.5;entryDx=0;entryDy=0;exitX=0.052;exitY=0.52;exitDx=0;exitDy=0;exitPerimeter=0;" edge="1" parent="1" source="D2-zC5RqpFBFITcQUjuL-31" target="D2-zC5RqpFBFITcQUjuL-4">
          <mxGeometry relative="1" as="geometry">
            <mxPoint x="540" y="440" as="sourcePoint" />
            <mxPoint x="700" y="440" as="targetPoint" />
          </mxGeometry>
        </mxCell>
        <mxCell id="D2-zC5RqpFBFITcQUjuL-83" value="1" style="resizable=0;html=1;whiteSpace=wrap;align=right;verticalAlign=bottom;" connectable="0" vertex="1" parent="D2-zC5RqpFBFITcQUjuL-82">
          <mxGeometry x="1" relative="1" as="geometry">
            <mxPoint x="20" as="offset" />
          </mxGeometry>
        </mxCell>
        <mxCell id="D2-zC5RqpFBFITcQUjuL-84" value="" style="endArrow=none;html=1;rounded=0;entryX=0;entryY=0.5;entryDx=0;entryDy=0;" edge="1" parent="1" target="D2-zC5RqpFBFITcQUjuL-46">
          <mxGeometry relative="1" as="geometry">
            <mxPoint x="720" y="500" as="sourcePoint" />
            <mxPoint x="880" y="500" as="targetPoint" />
          </mxGeometry>
        </mxCell>
        <mxCell id="D2-zC5RqpFBFITcQUjuL-85" value="1" style="resizable=0;html=1;whiteSpace=wrap;align=right;verticalAlign=bottom;" connectable="0" vertex="1" parent="D2-zC5RqpFBFITcQUjuL-84">
          <mxGeometry x="1" relative="1" as="geometry" />
        </mxCell>
      </root>
    </mxGraphModel>
  </diagram>
</mxfile>
